<?xml version="1.0" standalone="no"?>
<svg xmlns="http://www.w3.org/2000/svg" viewBox="0 0 141 70" width="141" height="70"><g fill="#7b6ad2" color="#7b6ad2" transform="translate(48.273 0) scale(0.44) "><svg width="100.0" height="100.0" x="0.0" y="0.0" viewBox="0 0 100 100"><g><g><path fill="currentColor" d="M6.311,37.391l7.414,5.486l1.762,9.991c0.071,0.401,0.263,0.771,0.549,1.061l16.422,16.564    c1.056,1.071,2.532,1.685,4.047,1.685c0.66,0,1.3-0.109,1.909-0.327c1.49-0.536,2.699-1.678,3.316-3.133    c0.617-1.453,0.6-3.111-0.047-4.551l-5.249-11.687l13.454-2.27l10.997,8.102c2.987,12.674,3.264,12.732,4.688,13.029    c2.248,0.461,4.555-0.108,6.331-1.558c1.776-1.45,2.795-3.599,2.795-5.896V51.252c0-0.494-0.183-0.969-0.512-1.336L57.458,31.292    c-0.192-0.214-0.429-0.385-0.693-0.499L26.399,17.648l-7.657-6.442c-0.846-0.711-2.107-0.603-2.818,0.243    c-0.711,0.845-0.603,2.107,0.243,2.818l7.881,6.631c0.148,0.125,0.315,0.228,0.493,0.305l30.233,13.088l15.924,17.728v11.87    c0,1.09-0.483,2.11-1.325,2.797c-0.582,0.474-1.283,0.749-2.011,0.802c-0.6-1.978-1.77-6.624-2.753-10.806    c-0.108-0.462-0.378-0.871-0.76-1.153l-12.271-9.042c-0.437-0.322-0.987-0.452-1.519-0.362l-16.842,2.842    c-0.611,0.103-1.14,0.483-1.432,1.03c-0.292,0.546-0.314,1.197-0.06,1.762l6.309,14.047c0.194,0.434,0.2,0.913,0.014,1.349    c-0.187,0.439-0.538,0.77-0.984,0.931c-0.561,0.199-1.312,0.051-1.763-0.406L19.316,51.557l-1.731-9.818l-0.066-0.36    c-0.092-0.499-0.37-0.944-0.777-1.246l-8.052-5.958c-0.886-0.656-2.139-0.469-2.797,0.418C5.235,35.481,5.422,36.734,6.311,37.391    z"></path><path fill="currentColor" d="M78.153,38.136c-0.971-0.527-2.184-0.17-2.713,0.8c-0.528,0.97-0.17,2.185,0.8,2.713    c5.751,3.134,14.26,9.261,14.26,12.458c0,1.875-1.777,4.375-3.658,7.021c-2.941,4.138-6.601,9.288-6.483,15.861    c0.074,4.134-2.174,7.905-5.866,9.843c-3.874,2.032-8.494,1.592-12.357-1.179c-8.237-5.905-15.626-3.731-22.146-1.813    c-1.989,0.585-3.868,1.138-5.736,1.47c-6.522,1.158-19.523,0.725-22.05-9.217c-2.522-9.92,1.614-17.641,1.654-17.712    c0.536-0.965,0.188-2.183-0.777-2.72c-0.966-0.536-2.183-0.188-2.72,0.777c-0.204,0.367-4.961,9.124-2.034,20.64    c2.825,11.111,15.78,14.097,26.627,12.17c2.085-0.371,4.159-0.981,6.165-1.571c6.189-1.822,12.036-3.542,18.686,1.227    c2.962,2.124,6.28,3.203,9.566,3.203c2.394,0,4.772-0.573,6.981-1.733c5.04-2.645,8.108-7.801,8.007-13.456    c-0.094-5.258,3.008-9.622,5.745-13.473c2.261-3.182,4.397-6.188,4.397-9.338C94.5,47.376,80.882,39.622,78.153,38.136z"></path><path fill="currentColor" d="M75.024,10.792c-1.074,0.258-1.736,1.337-1.479,2.411l2.766,11.529c0.22,0.917,1.04,1.534,1.943,1.534    c0.154,0,0.311-0.018,0.468-0.056c1.074-0.258,1.736-1.337,1.479-2.411L77.436,12.27C77.177,11.196,76.098,10.533,75.024,10.792z"></path><path fill="currentColor" d="M86.461,16.729l-2.766,7.989c-0.361,1.043,0.192,2.183,1.236,2.544c0.217,0.075,0.438,0.11,0.654,0.11    c0.829,0,1.604-0.519,1.89-1.346l2.766-7.989c0.361-1.043-0.192-2.183-1.236-2.544C87.96,15.132,86.823,15.686,86.461,16.729z"></path></g></g></svg></g><path fill="#2c1979" fill-rule="nonzero" d="M6.24 17.95Q4.37 17.95 2.65 17.35Q0.94 16.75 0 15.77L0 15.77L0.70 14.40Q1.61 15.31 3.12 15.88Q4.63 16.44 6.24 16.44L6.24 16.44Q8.50 16.44 9.62 15.61Q10.75 14.78 10.75 13.46L10.75 13.46Q10.75 12.46 10.14 11.86Q9.53 11.26 8.64 10.93Q7.75 10.61 6.17 10.22L6.17 10.22Q4.27 9.74 3.14 9.30Q2.02 8.86 1.21 7.94Q0.41 7.03 0.41 5.47L0.41 5.47Q0.41 4.20 1.08 3.16Q1.75 2.11 3.14 1.49Q4.54 0.86 6.60 0.86L6.60 0.86Q8.04 0.86 9.42 1.26Q10.80 1.66 11.81 2.35L11.81 2.35L11.21 3.77Q10.15 3.07 8.95 2.72Q7.75 2.38 6.60 2.38L6.60 2.38Q4.39 2.38 3.28 3.23Q2.16 4.08 2.16 5.42L2.16 5.42Q2.16 6.43 2.77 7.04Q3.38 7.66 4.31 7.98Q5.23 8.30 6.79 8.69L6.79 8.69Q8.64 9.14 9.78 9.59Q10.92 10.03 11.71 10.93Q12.50 11.83 12.50 13.37L12.50 13.37Q12.50 14.64 11.82 15.68Q11.14 16.73 9.72 17.34Q8.30 17.95 6.24 17.95L6.24 17.95ZM19.56 17.93Q17.86 17.93 16.93 16.97Q16.01 16.01 16.01 14.30L16.01 14.30L16.01 0L17.71 0L17.71 14.16Q17.71 15.29 18.24 15.88Q18.77 16.46 19.82 16.46L19.82 16.46Q20.50 16.46 20.98 16.25L20.98 16.25L21.10 17.66Q20.35 17.93 19.56 17.93L19.56 17.93ZM33 5.18L34.70 5.18L34.70 17.81L33.07 17.81L33.07 15.31Q32.30 16.58 31.04 17.26Q29.78 17.93 28.20 17.93L28.20 17.93Q26.42 17.93 24.98 17.11Q23.54 16.30 22.73 14.83Q21.91 13.37 21.91 11.50L21.91 11.50Q21.91 9.62 22.73 8.16Q23.54 6.70 24.98 5.89Q26.42 5.09 28.20 5.09L28.20 5.09Q29.74 5.09 30.97 5.72Q32.21 6.36 33 7.58L33 7.58L33 5.18ZM28.34 16.42Q29.66 16.42 30.73 15.80Q31.80 15.19 32.41 14.06Q33.02 12.94 33.02 11.50L33.02 11.50Q33.02 10.06 32.41 8.93Q31.80 7.80 30.73 7.19Q29.66 6.58 28.34 6.58L28.34 6.58Q27.00 6.58 25.93 7.19Q24.86 7.80 24.25 8.93Q23.64 10.06 23.64 11.50L23.64 11.50Q23.64 12.94 24.25 14.06Q24.86 15.19 25.93 15.80Q27.00 16.42 28.34 16.42L28.34 16.42ZM42.84 17.93Q41.30 17.93 39.90 17.48Q38.50 17.04 37.70 16.37L37.70 16.37L38.47 15.02Q39.26 15.65 40.46 16.04Q41.66 16.44 42.96 16.44L42.96 16.44Q44.69 16.44 45.52 15.90Q46.34 15.36 46.34 14.38L46.34 14.38Q46.34 13.68 45.89 13.28Q45.43 12.89 44.74 12.68Q44.04 12.48 42.89 12.29L42.89 12.29Q41.35 12 40.42 11.70Q39.48 11.40 38.82 10.68Q38.16 9.96 38.16 8.69L38.16 8.69Q38.16 7.10 39.48 6.10Q40.80 5.09 43.15 5.09L43.15 5.09Q44.38 5.09 45.60 5.41Q46.82 5.74 47.62 6.26L47.62 6.26L46.87 7.63Q45.31 6.55 43.15 6.55L43.15 6.55Q41.52 6.55 40.69 7.13Q39.86 7.70 39.86 8.64L39.86 8.64Q39.86 9.36 40.33 9.79Q40.80 10.22 41.50 10.43Q42.19 10.63 43.42 10.85L43.42 10.85Q44.93 11.14 45.84 11.42Q46.75 11.71 47.40 12.41Q48.05 13.10 48.05 14.33L48.05 14.33Q48.05 15.98 46.67 16.96Q45.29 17.93 42.84 17.93L42.84 17.93ZM57.62 5.09Q60 5.09 61.40 6.47Q62.81 7.85 62.81 10.49L62.81 10.49L62.81 17.81L61.10 17.81L61.10 10.66Q61.10 8.69 60.12 7.66Q59.14 6.62 57.31 6.62L57.31 6.62Q55.27 6.62 54.08 7.84Q52.90 9.05 52.90 11.18L52.90 11.18L52.90 17.81L51.19 17.81L51.19 0L52.90 0L52.90 7.39Q53.59 6.29 54.82 5.69Q56.04 5.09 57.62 5.09L57.62 5.09ZM81.38 17.95Q78.89 17.95 76.88 16.85Q74.88 15.74 73.74 13.79Q72.60 11.83 72.60 9.41L72.60 9.41Q72.60 6.98 73.74 5.03Q74.88 3.07 76.90 1.97Q78.91 0.86 81.41 0.86L81.41 0.86Q83.28 0.86 84.86 1.49Q86.45 2.11 87.55 3.31L87.55 3.31L86.42 4.44Q84.46 2.45 81.46 2.45L81.46 2.45Q79.46 2.45 77.83 3.36Q76.20 4.27 75.28 5.86Q74.35 7.44 74.35 9.41L74.35 9.41Q74.35 11.38 75.28 12.96Q76.20 14.54 77.83 15.46Q79.46 16.37 81.46 16.37L81.46 16.37Q84.48 16.37 86.42 14.35L86.42 14.35L87.55 15.48Q86.45 16.68 84.85 17.32Q83.26 17.95 81.38 17.95L81.38 17.95ZM94.54 17.93Q92.83 17.93 91.91 16.97Q90.98 16.01 90.98 14.30L90.98 14.30L90.98 0L92.69 0L92.69 14.16Q92.69 15.29 93.22 15.88Q93.74 16.46 94.80 16.46L94.80 16.46Q95.47 16.46 95.95 16.25L95.95 16.25L96.07 17.66Q95.33 17.93 94.54 17.93L94.54 17.93ZM103.56 16.42Q104.74 16.42 105.73 16.00Q106.73 15.58 107.42 14.76L107.42 14.76L108.38 15.86Q107.54 16.87 106.30 17.40Q105.05 17.93 103.54 17.93L103.54 17.93Q101.59 17.93 100.08 17.10Q98.57 16.27 97.73 14.81Q96.89 13.34 96.89 11.50L96.89 11.50Q96.89 9.65 97.69 8.18Q98.50 6.72 99.91 5.90Q101.33 5.09 103.13 5.09L103.13 5.09Q104.81 5.09 106.16 5.86Q107.52 6.62 108.32 7.99Q109.13 9.36 109.18 11.11L109.18 11.11L98.81 13.13Q99.29 14.66 100.55 15.54Q101.81 16.42 103.56 16.42L103.56 16.42ZM103.13 6.55Q101.81 6.55 100.76 7.16Q99.72 7.78 99.13 8.87Q98.54 9.96 98.54 11.38L98.54 11.38Q98.54 11.74 98.57 11.90L98.57 11.90L107.47 10.18Q107.18 8.59 106.01 7.57Q104.83 6.55 103.13 6.55L103.13 6.55ZM122.47 5.18L124.18 5.18L124.18 17.81L122.54 17.81L122.54 15.31Q121.78 16.58 120.52 17.26Q119.26 17.93 117.67 17.93L117.67 17.93Q115.90 17.93 114.46 17.11Q113.02 16.30 112.20 14.83Q111.38 13.37 111.38 11.50L111.38 11.50Q111.38 9.62 112.20 8.16Q113.02 6.70 114.46 5.89Q115.90 5.09 117.67 5.09L117.67 5.09Q119.21 5.09 120.44 5.72Q121.68 6.36 122.47 7.58L122.47 7.58L122.47 5.18ZM117.82 16.42Q119.14 16.42 120.20 15.80Q121.27 15.19 121.88 14.06Q122.50 12.94 122.50 11.50L122.50 11.50Q122.50 10.06 121.88 8.93Q121.27 7.80 120.20 7.19Q119.14 6.58 117.82 6.58L117.82 6.58Q116.47 6.58 115.40 7.19Q114.34 7.80 113.72 8.93Q113.11 10.06 113.11 11.50L113.11 11.50Q113.11 12.94 113.72 14.06Q114.34 15.19 115.40 15.80Q116.47 16.42 117.82 16.42L117.82 16.42ZM135.36 5.09Q137.74 5.09 139.14 6.47Q140.54 7.85 140.54 10.49L140.54 10.49L140.54 17.81L138.84 17.81L138.84 10.66Q138.84 8.69 137.86 7.66Q136.87 6.62 135.05 6.62L135.05 6.62Q133.01 6.62 131.82 7.84Q130.63 9.05 130.63 11.18L130.63 11.18L130.63 17.81L128.93 17.81L128.93 5.18L130.56 5.18L130.56 7.51Q131.26 6.36 132.49 5.72Q133.73 5.09 135.36 5.09L135.36 5.09Z" transform="translate(0, 52)"></path></svg>